<svg id="e5HFgahIQ2x1" xmlns="http://www.w3.org/2000/svg" xmlns:xlink="http://www.w3.org/1999/xlink" viewBox="0 0 300 340" shape-rendering="geometricPrecision" text-rendering="geometricPrecision"><path d="M60,10L10,90h280L240,10h-180Z" fill="none" stroke="#3f5787" stroke-width="0.678"/><path d="M60,10l90,320L240,10h-180Z" fill="none" stroke="#3f5787" stroke-width="0.678"/><path d="M10,90l140,90L290,90h-280Z" fill="none" stroke="#3f5787" stroke-width="0.678"/><path d="M50,240l100,90l100-90-100-60L50,240Z" fill="none" stroke="#3f5787" stroke-width="0.678"/><path d="M186.108472,201.612499L250,240l-48.5-93-15.391528,54.612499Z" fill="none" stroke="#3f5787" stroke-width="0.678"/><path d="M186.108472,201.612499L250,240l-48.5-93-15.391528,54.612499Z" transform="matrix(-1 0 0 1 299.979048 0)" fill="none" stroke="#3f5787" stroke-width="0.678"/><path d="M150,330L50,240l48.479048-93L150,330Z" fill="none" stroke="#3f5787" stroke-width="0.678"/><path d="M150,330L50,240l48.479048-93L150,330Z" transform="matrix(-1 0 0 1 300.011228 0.000226)" fill="none" stroke="#3f5787" stroke-width="0.678"/></svg>
